<?xml version="1.0" encoding="UTF-8"?>
<svg width="24px" height="24px" viewBox="0 0 24 24" version="1.1" xmlns="http://www.w3.org/2000/svg" xmlns:xlink="http://www.w3.org/1999/xlink">
    <!-- Generator: Sketch 52.6 (67491) - http://www.bohemiancoding.com/sketch -->
    <title>下载</title>
    <desc>Created with Sketch.</desc>
    <symbol id="icon-download" stroke="none" stroke-width="1" fill="none" fill-rule="evenodd" opacity="0.8">
        <g transform="translate(-116.000000, -499.000000)" fill="#FD1BB8">
            <g transform="translate(116.000000, 499.000000)">
                <path d="M23.9976794,19.1885206 L23.9802265,19.1885206 C23.895261,18.5134181 23.3256733,17.9898552 22.6276755,17.9898552 C21.9296543,17.9898552 21.3600666,18.5134415 21.2752418,19.1885206 L21.257789,19.1885206 C21.257789,19.1885206 21.257789,21.2433857 19.2027597,21.2433856 L4.81825879,21.2433856 C2.76334685,21.2433856 2.76334685,19.1885206 2.76334685,19.1885206 L2.74624584,19.1885206 C2.66090503,18.5134181 2.09129382,17.9898552 1.39343683,17.9898552 C0.695415616,17.9898552 0.125851327,18.5134415 0.0404636008,19.1885206 L0.0234329706,19.1885206 C0.0234329706,19.1885206 0.0234329706,19.2343813 0.0278900196,19.3155231 C0.0275146849,19.3306771 0.0234329706,19.3447051 0.0234329706,19.3597418 C0.0234329706,19.4631688 0.0372029119,19.5631944 0.0587140509,19.6597483 C0.203544775,20.8673278 0.951907209,23.9832995 4.81823533,23.9832995 L19.2027597,23.9832995 C22.828712,23.9832995 23.7161579,21.0354759 23.9305656,19.7628 C23.9731435,19.6326027 23.9957711,19.4967111 23.9976794,19.3597418 C23.9976794,19.3364244 23.9918383,19.3145144 23.9908296,19.2915724 C23.99592,19.2262179 23.9976794,19.1885206 23.9976794,19.1885206 Z" id="Path"></path>
                <path d="M3.59826991,11.5300391 L11.1350974,19.0384587 C11.3696628,19.2719338 11.6871777,19.4029616 12.0181332,19.4028579 C12.349078,19.4029425 12.6665786,19.2719172 12.9011455,19.0384587 L20.4383483,11.5302971 C20.9259497,11.0445254 20.9259497,10.2568471 20.4383483,9.77095808 C19.9506061,9.28509252 19.1599251,9.28509252 18.6723002,9.77095808 L13.2807455,15.1413066 L13.2807455,1.24253044 C13.2801817,0.912810944 13.148249,0.596908639 12.9141413,0.36472584 C12.6795289,0.131934872 12.3622214,0.00161079526 12.0317154,0.00229716634 C11.3420219,0.00229716634 10.7828965,0.557458145 10.7828965,1.24253044 L10.7828965,15.169644 L5.36403649,9.77095808 C5.05051811,9.44761071 4.58614023,9.31798088 4.14963067,9.43177644 C3.71298035,9.54561891 3.37206282,9.88526971 3.25779809,10.3202311 C3.1435099,10.7550751 3.27370272,11.2176936 3.59826991,11.5300391 Z" id="Path"></path>
            </g>
        </g>
    </symbol>
    <symbol id="icon-share" stroke="none" stroke-width="1" fill="none" fill-rule="evenodd" opacity="0.8">
        <g id="iPhone-8" transform="translate(-176.000000, -500.000000)" fill="#FD1BB8">
            <g id="分享" transform="translate(176.000000, 500.000000)">
                <path d="M19.6276596,17.4468085 C18.656292,17.4460472 17.7351514,17.8783622 17.1150468,18.6260426 L6.54551489,12.7429447 C6.54932767,12.6770383 6.55531915,12.6116766 6.55531915,12.5446809 C6.55531915,12.4313872 6.54932767,12.319183 6.53788937,12.2086128 L17.4837957,5.74815319 C18.0772104,6.26749459 18.8390809,6.55358316 19.6276596,6.55319148 C21.4325731,6.55319148 22.8957447,5.09001994 22.8957447,3.28510637 C22.8957447,1.48019281 21.4325731,0.017021266 19.6276596,0.017021266 C17.822746,0.017021266 16.3595745,1.48019281 16.3595745,3.28510637 C16.3595745,3.67618723 16.432017,4.0492936 16.5578383,4.3968 L5.95181276,10.656817 C5.34044938,9.79134515 4.34685979,9.27667711 3.28723404,9.27659576 C1.48232048,9.27659576 0.0191489362,10.7397673 0.0191489362,12.5446809 C0.0191489362,14.3495944 1.48232048,15.812766 3.28723404,15.812766 C4.39344928,15.8129264 5.42439637,15.2525488 6.02588936,14.3241532 L16.4178553,20.1086638 C16.3796006,20.3084858 16.360089,20.5114435 16.3595745,20.7148936 C16.3595745,22.5198072 17.822746,23.9829787 19.6276596,23.9829787 C21.4325731,23.9829787 22.8957447,22.5198072 22.8957447,20.7148936 C22.8957447,18.9099801 21.4325731,17.4468085 19.6276596,17.4468085 Z" id="Path"></path>
            </g>
        </g>
    </symbol>
    <symbol id="icon-like" stroke="none" stroke-width="1" fill="none" fill-rule="evenodd" opacity="0.8">
        <g id="iPhone-8" transform="translate(-60.000000, -502.000000)" fill="#FD1BB8">
            <g id="喜欢" transform="translate(60.000000, 502.000000)">
                <path d="M17.4,0 C15.3,0 13.3227273,0.898561565 12,2.35709628 C10.6772727,0.898561565 8.7,8.22500989e-16 6.6,8.22500989e-16 C2.87727273,8.22500989e-16 0,2.6956847 0,6.1857499 C0,10.457173 4.07727273,13.882125 10.2545455,19.1693134 L12,20.6278481 L13.7454545,19.1693134 C19.9227273,13.882125 24,10.457173 24,6.1857499 C24,2.6956847 21.1227273,8.22500989e-16 17.4,0 Z" id="Path"></path>
            </g>
        </g>
    </symbol>
    <symbol id="icon-more" stroke="none" stroke-width="1" fill="none" fill-rule="evenodd" opacity="0.8">
        <g id="iPhone-8" transform="translate(-288.000000, -509.000000)" fill="#FD1BB8" fill-rule="nonzero">
            <g id="更多" transform="translate(288.914894, 509.000000)">
                <path d="M2.25284281,0.0133779264 C1.01137124,0.0133779264 0.00535117057,1.08628763 0.00535117057,2.41070234 C0.00535117057,3.73511706 1.01137124,4.80802676 2.25284281,4.80802676 C3.49431438,4.80802676 4.50301003,3.73511706 4.50301003,2.41070234 C4.50301003,1.08628763 3.49431438,0.0133779264 2.25284281,0.0133779264 M12,0.0133779264 C10.7585284,0.0133779264 9.74983278,1.08628763 9.74983278,2.41070234 C9.74983278,3.73511706 10.7558528,4.80802676 12,4.80802676 C13.2414716,4.80802676 14.2474916,3.73511706 14.2474916,2.41070234 C14.2474916,1.08628763 13.2414716,0.0133779264 12,0.0133779264 M21.7337793,0.0133779264 C20.4923077,0.0133779264 19.483612,1.08628763 19.483612,2.41070234 C19.483612,3.73511706 20.4896321,4.80802676 21.7337793,4.80802676 C22.9752508,4.80802676 23.9812709,3.73511706 23.9812709,2.41070234 C23.9812709,1.08628763 22.9752508,0.0133779264 21.7337793,0.0133779264" id="Shape"></path>
            </g>
        </g>
    </symbol>
    <symbol id="icon-comment" stroke="none" stroke-width="1" fill="none" fill-rule="evenodd" opacity="0.8">
        <g id="iPhone-8" transform="translate(-231.000000, -503.000000)" fill="#FD1BB8">
            <g id="评论" transform="translate(231.000000, 503.000000)">
                <path d="M23.529784,1.94060485 C22.9036092,0.688255224 21.7261283,0.000824188235 20.2151412,0.000824188235 L3.78485875,0.000824188235 C2.27387172,0.000824188235 1.09639082,0.688255224 0.470216024,1.94060485 C0.0346161412,2.81180459 0.0210036471,3.66939184 0.0210036471,3.76467929 L0.0210036471,13.803895 C0.0210036471,13.8991825 0.0346161412,14.7567697 0.470216024,15.6347757 C1.09639082,16.8871253 2.27387172,17.5745563 3.78485875,17.5745563 L4.35658358,17.5745563 L4.35658358,19.2284746 C4.35658358,19.4190495 4.38380856,20.1268993 4.90788967,20.6713991 C5.15291459,20.9232303 5.58851447,21.2227052 6.28275174,21.2227052 C7.03143901,21.2227052 7.69164506,20.6918179 7.90944499,20.4944367 L11.4555002,17.5745563 L20.2151412,17.5745563 C21.7261283,17.5745563 22.9036092,16.8871253 23.529784,15.6347757 C23.9653838,14.7567697 23.9789963,13.8991824 23.9789964,13.803895 L23.9789964,3.76467929 C23.9789964,3.66939181 23.9653839,2.81180459 23.529784,1.94060485 Z M21.9235095,13.803895 C21.9235095,13.8107012 21.909897,14.2735261 21.692097,14.7159322 C21.4198471,15.260432 20.950216,15.5190695 20.2151412,15.5190695 L11.0879628,15.5190695 C10.8497441,15.5190695 10.6183317,15.6007444 10.434563,15.7504819 L6.58222666,18.9221934 C6.56861416,18.9358059 6.55500167,18.9494184 6.53458292,18.9630309 C6.50735793,18.9902559 6.45290795,19.0310934 6.40526421,19.0651246 L6.40526421,17.0028315 C6.40526421,16.9143503 6.39165172,16.8258691 6.37123296,16.7441941 L6.37123296,16.7305816 C6.18065802,15.6075507 5.21417082,15.5190695 4.92150216,15.5190695 L3.78485875,15.5190695 C2.84559654,15.5190695 2.50528414,15.0902758 2.32832169,14.7635759 C2.09010301,14.3211698 2.06968428,13.8379262 2.06968428,13.803895 L2.06968428,3.76467929 C2.06968428,3.75787304 2.08329678,3.29504819 2.30109671,2.85264207 C2.57334661,2.30814224 3.04297774,2.04950482 3.77805252,2.04950482 L20.208335,2.04950482 C20.9434098,2.04950482 21.4130409,2.301336 21.6852908,2.85264207 C21.9030907,3.29504819 21.9167032,3.75787304 21.9167032,3.76467929 L21.9167032,13.803895 L21.9235095,13.803895 Z" id="Shape" fill-rule="nonzero"></path>
                <path d="M5.15972085,8.79449652 C5.15972083,9.38052132 5.47236134,9.92203058 5.97987371,10.215043 C6.48738608,10.5080554 7.1126671,10.5080554 7.62017947,10.215043 C8.12769184,9.92203058 8.44033234,9.38052132 8.44033233,8.79449652 C8.44033233,7.88858067 7.70594243,7.15419078 6.80002659,7.15419078 C5.89411074,7.15419078 5.15972085,7.88858067 5.15972085,8.79449652 Z" id="Path"></path>
                <path d="M10.3596943,8.79449652 C10.3596942,9.38052133 10.6723347,9.92203059 11.1798471,10.215043 C11.6873595,10.5080554 12.3126405,10.5080554 12.8201529,10.215043 C13.3276653,9.92203059 13.6403058,9.38052133 13.6403057,8.79449652 C13.6403058,8.20847171 13.3276653,7.66696245 12.8201529,7.37395004 C12.3126405,7.08093763 11.6873595,7.08093763 11.1798471,7.37395004 C10.6723347,7.66696245 10.3596942,8.20847171 10.3596943,8.79449652 Z" id="Path"></path>
                <path d="M15.5596677,8.79449652 C15.5596677,9.70041236 16.2940576,10.4348023 17.1999734,10.4348023 C18.1058893,10.4348023 18.8402792,9.70041236 18.8402792,8.79449652 C18.8402792,7.88858067 18.1058893,7.15419078 17.1999734,7.15419078 C16.2940576,7.15419078 15.5596677,7.88858067 15.5596677,8.79449652 Z" id="Path"></path>
            </g>
        </g>
    </symbol>
</svg>
