<?xml version="1.0" standalone="no"?><!DOCTYPE svg PUBLIC "-//W3C//DTD SVG 1.1//EN" "http://www.w3.org/Graphics/SVG/1.1/DTD/svg11.dtd"><svg t="1550474931879" class="icon" style="" viewBox="0 0 1024 1024" version="1.1" xmlns="http://www.w3.org/2000/svg" p-id="2393" xmlns:xlink="http://www.w3.org/1999/xlink" width="200" height="200"><defs><style type="text/css"></style></defs><path d="M826.197333 35.157333H198.314667C96.597333 35.157333 13.482667 118.272 13.482667 219.818667v554.154666c0 101.546667 83.114667 184.661333 184.661333 184.661334H826.026667c101.546667 0 184.661333-83.114667 184.661333-184.661334V219.818667c0.170667-101.546667-82.944-184.661333-184.490667-184.661334zM936.96 773.973333c0 60.928-49.834667 110.762667-110.762667 110.762667H198.314667c-60.928 0-110.762667-49.834667-110.762667-110.762667V219.818667c0-60.928 49.834667-110.762667 110.762667-110.762667h627.882666c60.928 0 110.762667 49.834667 110.762667 110.762667v554.154666z m0 0" fill="#d4237a" p-id="2394"></path><path d="M758.272 177.152c-8.874667-5.12-19.285333-6.485333-29.013333-3.754667l-74.069334 19.797334c-24.746667 6.656-41.984 29.013333-41.984 54.613333v208.213333c-34.304-23.893333-76.458667-34.986667-118.613333-30.890666-85.845333 8.192-154.624 79.36-160.256 165.376-3.242667 49.834667 13.653333 97.109333 47.786667 133.632 33.621333 35.84 80.896 56.32 129.877333 56.32 98.133333 0 178.176-79.872 178.176-178.176 0-3.413333-0.170667-6.656-0.341333-9.557334v-322.56c0-4.266667 2.730667-7.850667 6.826666-8.874666l52.224-13.994667c20.48-5.632 32.597333-26.624 26.965334-46.933333-2.389333-9.728-8.704-18.090667-17.578667-23.210667zM612.864 602.453333c0 55.637333-45.226667 100.864-100.864 100.864-55.466667 0-100.864-45.226667-100.864-100.864 0-55.466667 45.226667-100.864 100.864-100.864 55.466667 0.170667 100.864 45.397333 100.864 100.864z m0 0" fill="#d4237a" p-id="2395"></path></svg>