<?xml version="1.0" encoding="UTF-8"?>
<svg width="23px" height="24px" viewBox="0 0 23 24" version="1.1" xmlns="http://www.w3.org/2000/svg" xmlns:xlink="http://www.w3.org/1999/xlink">
    <!-- Generator: Sketch 52.6 (67491) - http://www.bohemiancoding.com/sketch -->
    <title>分享</title>
    <desc>Created with Sketch.</desc>
    <g id="Page-1" stroke="none" stroke-width="1" fill="none" fill-rule="evenodd" opacity="0.8">
        <g id="iPhone-8" transform="translate(-176.000000, -500.000000)" fill="#FD1BB8">
            <g id="分享" transform="translate(176.000000, 500.000000)">
                <path d="M19.6276596,17.4468085 C18.656292,17.4460472 17.7351514,17.8783622 17.1150468,18.6260426 L6.54551489,12.7429447 C6.54932767,12.6770383 6.55531915,12.6116766 6.55531915,12.5446809 C6.55531915,12.4313872 6.54932767,12.319183 6.53788937,12.2086128 L17.4837957,5.74815319 C18.0772104,6.26749459 18.8390809,6.55358316 19.6276596,6.55319148 C21.4325731,6.55319148 22.8957447,5.09001994 22.8957447,3.28510637 C22.8957447,1.48019281 21.4325731,0.017021266 19.6276596,0.017021266 C17.822746,0.017021266 16.3595745,1.48019281 16.3595745,3.28510637 C16.3595745,3.67618723 16.432017,4.0492936 16.5578383,4.3968 L5.95181276,10.656817 C5.34044938,9.79134515 4.34685979,9.27667711 3.28723404,9.27659576 C1.48232048,9.27659576 0.0191489362,10.7397673 0.0191489362,12.5446809 C0.0191489362,14.3495944 1.48232048,15.812766 3.28723404,15.812766 C4.39344928,15.8129264 5.42439637,15.2525488 6.02588936,14.3241532 L16.4178553,20.1086638 C16.3796006,20.3084858 16.360089,20.5114435 16.3595745,20.7148936 C16.3595745,22.5198072 17.822746,23.9829787 19.6276596,23.9829787 C21.4325731,23.9829787 22.8957447,22.5198072 22.8957447,20.7148936 C22.8957447,18.9099801 21.4325731,17.4468085 19.6276596,17.4468085 Z" id="Path"></path>
            </g>
        </g>
    </g>
</svg>