<?xml version="1.0" encoding="UTF-8"?>
<svg width="120px" height="120px" viewBox="0 0 120 120" version="1.1" xmlns="http://www.w3.org/2000/svg" xmlns:xlink="http://www.w3.org/1999/xlink">
    <!-- Generator: Sketch 52.6 (67491) - http://www.bohemiancoding.com/sketch -->
    <title>图-资源 14</title>
    <desc>Created with Sketch.</desc>
    <defs>
        <radialGradient cx="50%" cy="50%" fx="50%" fy="50%" r="50%" id="radialGradient-1">
            <stop stop-color="#AC2D73" offset="0%"></stop>
            <stop stop-color="#120A82" offset="92%"></stop>
            <stop stop-color="#07006B" offset="100%"></stop>
        </radialGradient>
        <linearGradient x1="90.5072268%" y1="20.6957496%" x2="9.4941375%" y2="79.3043243%" id="linearGradient-2">
            <stop stop-color="#3B2EE8" stop-opacity="0.2" offset="0%"></stop>
            <stop stop-color="#FC429F" offset="25%"></stop>
            <stop stop-color="#B639E5" offset="87%"></stop>
            <stop stop-color="#FCFCFC" offset="100%"></stop>
        </linearGradient>
        <linearGradient x1="126.40209%" y1="13.5040932%" x2="-24.1592819%" y2="87.2715353%" id="linearGradient-3">
            <stop stop-color="#FC429F" offset="0%"></stop>
            <stop stop-color="#3B2EE8" offset="100%"></stop>
        </linearGradient>
        <linearGradient x1="67.8867993%" y1="30.9688504%" x2="75.4688625%" y2="21.1618118%" id="linearGradient-4">
            <stop stop-color="#FC57A9" offset="0%"></stop>
            <stop stop-color="#FCFCFC" offset="100%"></stop>
        </linearGradient>
        <linearGradient x1="61.4131653%" y1="33.8941487%" x2="39.4202448%" y2="71.4869303%" id="linearGradient-5">
            <stop stop-color="#B639E5" offset="0%"></stop>
            <stop stop-color="#3B2EE8" offset="100%"></stop>
        </linearGradient>
        <linearGradient x1="92.2146132%" y1="-4.63859816%" x2="10.4535745%" y2="110.070945%" id="linearGradient-6">
            <stop stop-color="#FC429F" offset="0%"></stop>
            <stop stop-color="#B639E5" offset="100%"></stop>
        </linearGradient>
        <linearGradient x1="-0.012371134%" y1="49.9958763%" x2="99.9876289%" y2="49.9958763%" id="linearGradient-7">
            <stop stop-color="#FC429F" offset="0%"></stop>
            <stop stop-color="#3B2EE8" stop-opacity="0.2" offset="100%"></stop>
        </linearGradient>
        <linearGradient x1="99.9876289%" y1="50.0041237%" x2="-0.012371134%" y2="50.0041237%" id="linearGradient-8">
            <stop stop-color="#FC429F" offset="0%"></stop>
            <stop stop-color="#3B2EE8" stop-opacity="0.2" offset="100%"></stop>
        </linearGradient>
    </defs>
    <g id="Page-1" stroke="none" stroke-width="1" fill="none" fill-rule="evenodd">
        <g id="iPhone-8" transform="translate(-98.000000, -367.000000)">
            <g id="图-资源-14" transform="translate(98.000000, 367.000000)">
                <circle id="Oval" fill="url(#radialGradient-1)" cx="60" cy="60" r="56.2303665"></circle>
                <path d="M59.9546981,5.44504565 C86.8047924,5.42076168 109.680547,24.9384252 113.885169,51.4586868 C118.08979,77.9789484 102.373011,103.615869 76.8322597,111.89871 C51.2915079,120.181552 23.5214602,108.647369 11.3633059,84.7064306 C-0.794848386,60.7654923 6.27418198,31.536763 28.0288164,15.7985791 C37.3150428,9.07139481 48.4880431,5.4480013 59.9546981,5.44504565 Z M59.9546981,3.76971662 C33.8913838,3.79669463 11.2617303,21.7290757 5.27752798,47.0974614 C-0.706674366,72.465847 11.5228171,98.6221023 34.8261017,110.295513 C42.6602715,114.191294 51.2891948,116.222496 60.0384601,116.230366 C81.154805,116.217761 100.483646,104.373961 110.083704,85.5650061 C119.683762,66.7560514 117.936164,44.1537265 105.558912,27.0442253 C94.988874,12.4006447 78.0181315,3.73868274 59.9588862,3.76971662 L59.9546981,3.76971662 Z" id="Shape" fill="url(#linearGradient-2)" fill-rule="nonzero"></path>
                <path d="M3.11355095,79.1623037 C-5.36387289,53.8217077 3.88441428,25.9210279 25.8132918,10.6806283 L28.9005236,15.1633244 C8.93631605,29.0036591 0.520150101,54.3917412 8.25754093,77.4346415 L3.11355095,79.1623037 Z" id="Path" fill="url(#linearGradient-3)"></path>
                <path d="M114.233663,66.0140859 C116.365439,46.2882849 107.652496,26.9545344 91.4665801,15.4946344 C75.280664,4.0347345 54.1613434,2.24674217 36.2814004,10.8225771 L33.9267016,5.90883895 C53.5882132,-3.52252155 76.8124185,-1.55739696 94.6120892,11.0437551 C112.41176,23.6449072 121.994169,44.9049952 119.651146,66.5968586 L114.233663,66.0140859 Z" id="Path" fill="url(#linearGradient-4)"></path>
                <path d="M54.8251683,120 C35.4939093,118.324782 18.1393746,107.452756 8.16753927,90.7705822 L12.8627524,87.9581152 C21.9284868,103.128396 37.7096713,113.014486 55.2879581,114.535296 L54.8251683,120 Z" id="Path" fill="url(#linearGradient-5)"></path>
                <path d="M64.5021584,119.371728 L64.0837696,113.953021 C86.605762,112.262751 105.760674,96.9368384 112.277971,75.3926702 L117.486911,76.9474222 C110.330079,100.643692 89.2701176,117.50617 64.5021584,119.371728 Z" id="Path" fill="url(#linearGradient-6)"></path>
                <path d="M110.563403,60.3141361 L103.889467,60.3141361 C103.889467,35.9171429 84.2338809,16.1394721 59.9874864,16.1394721 C35.7410918,16.1394721 16.0855055,35.9171429 16.0855055,60.3141361 L9.42408377,60.3141361 C9.42408377,32.2083363 32.0676928,9.42408377 60,9.42408377 C87.9323072,9.42408377 110.575916,32.2083363 110.575916,60.3141361 L110.563403,60.3141361 Z" id="Path" fill="url(#linearGradient-7)"></path>
                <path d="M59.9874864,110.575916 C32.072455,110.538907 9.45395703,87.7742888 9.42408377,59.6858639 L16.0980191,59.6858639 C16.0980191,84.0828571 35.7536055,103.860528 60,103.860528 C84.2463945,103.860528 103.901981,84.0828571 103.901981,59.6858639 L110.575916,59.6858639 C110.546018,87.7841084 87.9122915,110.552783 59.9874864,110.575916 Z" id="Path" fill="url(#linearGradient-8)"></path>
                <path d="M80.41678,57.618233 C82.5386301,59.1106606 82.5386301,61.5075899 80.41678,63.0000176 L51.572223,82.2432892 C49.4503729,83.7357169 47.7486911,82.7181526 47.7486911,80.0046478 L47.7486911,40.6136028 C47.7486911,37.900098 49.4713813,36.9051462 51.572223,38.3749613 L80.41678,57.618233 Z" id="Path" fill="#FFFFFF"></path>
            </g>
        </g>
    </g>
</svg>