<?xml version="1.0" encoding="UTF-8"?>
<svg width="120px" height="120px" viewBox="0 0 120 120" version="1.1" xmlns="http://www.w3.org/2000/svg" xmlns:xlink="http://www.w3.org/1999/xlink">
    <!-- Generator: Sketch 52.6 (67491) - http://www.bohemiancoding.com/sketch -->
    <title>循环模式</title>
    <desc>Created with Sketch.</desc>
    <defs>
        <radialGradient cx="50%" cy="50%" fx="50%" fy="50%" r="50%" gradientTransform="translate(0.500000,0.500000),scale(1.000000,0.994186),translate(-0.500000,-0.500000)" id="radialGradient-1">
            <stop stop-color="#AC2D73" offset="0%"></stop>
            <stop stop-color="#120A82" offset="92%"></stop>
            <stop stop-color="#07006B" offset="100%"></stop>
        </radialGradient>
        <linearGradient x1="90.5072268%" y1="20.6957496%" x2="9.4941375%" y2="79.3043243%" id="linearGradient-2">
            <stop stop-color="#3B2EE8" stop-opacity="0.2" offset="0%"></stop>
            <stop stop-color="#FC429F" offset="25%"></stop>
            <stop stop-color="#B639E5" offset="87%"></stop>
            <stop stop-color="#FCFCFC" offset="100%"></stop>
        </linearGradient>
        <linearGradient x1="126.40209%" y1="13.5040932%" x2="-24.1592819%" y2="87.2715353%" id="linearGradient-3">
            <stop stop-color="#FC429F" offset="0%"></stop>
            <stop stop-color="#3B2EE8" offset="100%"></stop>
        </linearGradient>
        <linearGradient x1="67.8867993%" y1="30.9688504%" x2="75.4688625%" y2="21.1618118%" id="linearGradient-4">
            <stop stop-color="#FC57A9" offset="0%"></stop>
            <stop stop-color="#FCFCFC" offset="100%"></stop>
        </linearGradient>
        <linearGradient x1="61.4131653%" y1="33.8941487%" x2="39.4202448%" y2="71.4869303%" id="linearGradient-5">
            <stop stop-color="#B639E5" offset="0%"></stop>
            <stop stop-color="#3B2EE8" offset="100%"></stop>
        </linearGradient>
        <linearGradient x1="92.2146132%" y1="-4.63859816%" x2="10.4535745%" y2="110.070945%" id="linearGradient-6">
            <stop stop-color="#FC429F" offset="0%"></stop>
            <stop stop-color="#B639E5" offset="100%"></stop>
        </linearGradient>
    </defs>
    <g id="Page-1" stroke="none" stroke-width="1" fill="none" fill-rule="evenodd">
        <g id="iPhone-8" transform="translate(-17.000000, -198.000000)">
            <g id="循环模式" transform="translate(17.000000, 198.000000)">
                <g id="图-资源-12">
                    <ellipse id="Oval" fill="url(#radialGradient-1)" cx="60" cy="60.3278689" rx="56.0655738" ry="56.3934426"></ellipse>
                    <path d="M59.9548308,5.61469731 C86.7262364,5.59034291 109.53495,25.1646104 113.727249,51.7617846 C117.919548,78.3589588 102.24883,104.07023 76.7829298,112.377093 C51.3170297,120.683956 23.6283668,109.116322 11.5058441,85.1059517 C-0.616678668,61.0955812 6.4316347,31.7820844 28.1225135,15.9982575 C37.381525,9.2515634 48.5217809,5.61766153 59.9548308,5.61469731 Z M59.9548308,3.93450958 C33.9678996,3.96156583 11.4045662,21.9459534 5.43790156,47.387911 C-0.528763057,72.8298686 11.6648878,99.0619808 34.8998782,110.769246 C42.7110885,114.676325 51.3147233,116.713418 60.0383473,116.721311 C81.0928073,116.708669 100.365002,104.83052 109.936925,85.9670171 C119.508848,67.1035138 117.766372,44.4356389 105.425394,27.2765176 C94.8863331,12.5904686 77.9653263,3.9033857 59.9590067,3.93450958 L59.9548308,3.93450958 Z" id="Shape" fill="url(#linearGradient-2)" fill-rule="nonzero"></path>
                    <path d="M3.10837279,78.6885246 C-5.35495222,53.4533715 3.8779541,25.6687872 25.7703616,10.4918033 L28.852459,14.9558468 C8.92145404,28.7385915 0.519285038,54.0210331 8.24380779,76.9680513 L3.10837279,78.6885246 Z" id="Path" fill="url(#linearGradient-3)"></path>
                    <path d="M114.245163,65.6499501 C116.372688,46.0329572 107.677121,26.8058523 91.5234854,15.4091655 C75.3698494,4.01247878 54.2926478,2.23434907 36.4483634,10.7628794 L34.0983607,5.8762456 C53.7206607,-3.5030912 76.898549,-1.5488063 94.6627212,10.9828374 C112.426893,23.5144812 121.990192,44.6572978 119.651842,66.2295082 L114.245163,65.6499501 Z" id="Path" fill="url(#linearGradient-4)"></path>
                    <path d="M54.6247073,120 C35.5244375,118.320115 18.3772721,107.417802 8.52459016,90.6891545 L13.1637002,87.8688525 C22.1211082,103.081395 37.7137233,112.995026 55.0819672,114.520073 L54.6247073,120 Z" id="Path" fill="url(#linearGradient-5)"></path>
                    <path d="M64.6784245,119.344262 L64.2622951,113.931055 C86.6626643,112.2425 105.714136,96.9321406 112.196238,75.4098361 L117.377049,76.9630103 C110.258865,100.635232 89.3126319,117.480598 64.6784245,119.344262 Z" id="Path" fill="url(#linearGradient-6)"></path>
                </g>
                <g transform="translate(39.000000, 39.000000)" fill="#FFFFFF" id="Path">
                    <path d="M41.757359,2.73433339 C41.6791264,2.64709519 41.5843986,2.5762062 41.4786376,2.52575382 C41.1561911,2.37613 40.7752467,2.43670163 40.5151107,2.67895828 L36.4201215,6.34940498 C31.1022654,0.985402918 23.0931791,-1.37265373 15.3332807,0.893111073 C4.05521717,4.18700704 -2.41905579,16.0003633 0.873917253,27.2793497 C4.1668903,38.5583361 15.9802465,45.0307633 27.25831,41.7377902 C34.570593,39.6030798 39.8635303,33.8892917 41.7832007,27.0596951 C41.8487279,26.8215821 41.8413445,26.5557816 41.8413445,26.2973645 C41.8413446,25.5645984 41.5501912,24.8618579 41.0319608,24.3438006 C40.5137304,23.8257433 39.8108928,23.5348247 39.0781267,23.5350695 C37.876393,23.5314352 36.8089536,24.301929 36.4339653,25.4436649 C35.0625085,30.4957205 31.174253,34.7356079 25.7788718,36.3101068 C17.53721,38.7170781 8.90515365,33.9861981 6.49818232,25.7426905 C4.09213391,17.5001058 8.82393682,8.86712652 17.0655986,6.46015519 C22.5911114,4.84689373 28.2938245,6.44261974 32.1765425,10.1536748 L27.9680343,13.9219509 C27.6993029,14.154915 27.5973188,14.5267926 27.7096172,14.8642506 C27.8286736,15.2011159 28.1433888,15.4364601 28.5005583,15.4558414 L41.0347138,16.8762129 C41.5235532,16.9008733 41.9408639,16.5268179 41.9696302,16.0382029 L41.9825511,3.3748388 C41.9962373,3.13980245 41.9151224,2.90909061 41.757359,2.73433339 Z"></path>
                </g>
            </g>
        </g>
    </g>
</svg>