<?xml version="1.0" encoding="UTF-8"?>
<svg width="25px" height="5px" viewBox="0 0 25 5" version="1.1" xmlns="http://www.w3.org/2000/svg" xmlns:xlink="http://www.w3.org/1999/xlink">
    <!-- Generator: Sketch 52.6 (67491) - http://www.bohemiancoding.com/sketch -->
    <title>更多</title>
    <desc>Created with Sketch.</desc>
    <g id="Page-1" stroke="none" stroke-width="1" fill="none" fill-rule="evenodd" opacity="0.8">
        <g id="iPhone-8" transform="translate(-288.000000, -509.000000)" fill="#FD1BB8" fill-rule="nonzero">
            <g id="更多" transform="translate(288.914894, 509.000000)">
                <path d="M2.25284281,0.0133779264 C1.01137124,0.0133779264 0.00535117057,1.08628763 0.00535117057,2.41070234 C0.00535117057,3.73511706 1.01137124,4.80802676 2.25284281,4.80802676 C3.49431438,4.80802676 4.50301003,3.73511706 4.50301003,2.41070234 C4.50301003,1.08628763 3.49431438,0.0133779264 2.25284281,0.0133779264 M12,0.0133779264 C10.7585284,0.0133779264 9.74983278,1.08628763 9.74983278,2.41070234 C9.74983278,3.73511706 10.7558528,4.80802676 12,4.80802676 C13.2414716,4.80802676 14.2474916,3.73511706 14.2474916,2.41070234 C14.2474916,1.08628763 13.2414716,0.0133779264 12,0.0133779264 M21.7337793,0.0133779264 C20.4923077,0.0133779264 19.483612,1.08628763 19.483612,2.41070234 C19.483612,3.73511706 20.4896321,4.80802676 21.7337793,4.80802676 C22.9752508,4.80802676 23.9812709,3.73511706 23.9812709,2.41070234 C23.9812709,1.08628763 22.9752508,0.0133779264 21.7337793,0.0133779264" id="Shape"></path>
            </g>
        </g>
    </g>
</svg>