<?xml version="1.0" encoding="UTF-8"?>
<svg width="24px" height="22px" viewBox="0 0 24 22" version="1.1" xmlns="http://www.w3.org/2000/svg" xmlns:xlink="http://www.w3.org/1999/xlink">
    <!-- Generator: Sketch 52.6 (67491) - http://www.bohemiancoding.com/sketch -->
    <title>评论</title>
    <desc>Created with Sketch.</desc>
    <g id="Page-1" stroke="none" stroke-width="1" fill="none" fill-rule="evenodd" opacity="0.8">
        <g id="iPhone-8" transform="translate(-231.000000, -503.000000)" fill="#FD1BB8">
            <g id="评论" transform="translate(231.000000, 503.000000)">
                <path d="M23.529784,1.94060485 C22.9036092,0.688255224 21.7261283,0.000824188235 20.2151412,0.000824188235 L3.78485875,0.000824188235 C2.27387172,0.000824188235 1.09639082,0.688255224 0.470216024,1.94060485 C0.0346161412,2.81180459 0.0210036471,3.66939184 0.0210036471,3.76467929 L0.0210036471,13.803895 C0.0210036471,13.8991825 0.0346161412,14.7567697 0.470216024,15.6347757 C1.09639082,16.8871253 2.27387172,17.5745563 3.78485875,17.5745563 L4.35658358,17.5745563 L4.35658358,19.2284746 C4.35658358,19.4190495 4.38380856,20.1268993 4.90788967,20.6713991 C5.15291459,20.9232303 5.58851447,21.2227052 6.28275174,21.2227052 C7.03143901,21.2227052 7.69164506,20.6918179 7.90944499,20.4944367 L11.4555002,17.5745563 L20.2151412,17.5745563 C21.7261283,17.5745563 22.9036092,16.8871253 23.529784,15.6347757 C23.9653838,14.7567697 23.9789963,13.8991824 23.9789964,13.803895 L23.9789964,3.76467929 C23.9789964,3.66939181 23.9653839,2.81180459 23.529784,1.94060485 Z M21.9235095,13.803895 C21.9235095,13.8107012 21.909897,14.2735261 21.692097,14.7159322 C21.4198471,15.260432 20.950216,15.5190695 20.2151412,15.5190695 L11.0879628,15.5190695 C10.8497441,15.5190695 10.6183317,15.6007444 10.434563,15.7504819 L6.58222666,18.9221934 C6.56861416,18.9358059 6.55500167,18.9494184 6.53458292,18.9630309 C6.50735793,18.9902559 6.45290795,19.0310934 6.40526421,19.0651246 L6.40526421,17.0028315 C6.40526421,16.9143503 6.39165172,16.8258691 6.37123296,16.7441941 L6.37123296,16.7305816 C6.18065802,15.6075507 5.21417082,15.5190695 4.92150216,15.5190695 L3.78485875,15.5190695 C2.84559654,15.5190695 2.50528414,15.0902758 2.32832169,14.7635759 C2.09010301,14.3211698 2.06968428,13.8379262 2.06968428,13.803895 L2.06968428,3.76467929 C2.06968428,3.75787304 2.08329678,3.29504819 2.30109671,2.85264207 C2.57334661,2.30814224 3.04297774,2.04950482 3.77805252,2.04950482 L20.208335,2.04950482 C20.9434098,2.04950482 21.4130409,2.301336 21.6852908,2.85264207 C21.9030907,3.29504819 21.9167032,3.75787304 21.9167032,3.76467929 L21.9167032,13.803895 L21.9235095,13.803895 Z" id="Shape" fill-rule="nonzero"></path>
                <path d="M5.15972085,8.79449652 C5.15972083,9.38052132 5.47236134,9.92203058 5.97987371,10.215043 C6.48738608,10.5080554 7.1126671,10.5080554 7.62017947,10.215043 C8.12769184,9.92203058 8.44033234,9.38052132 8.44033233,8.79449652 C8.44033233,7.88858067 7.70594243,7.15419078 6.80002659,7.15419078 C5.89411074,7.15419078 5.15972085,7.88858067 5.15972085,8.79449652 Z" id="Path"></path>
                <path d="M10.3596943,8.79449652 C10.3596942,9.38052133 10.6723347,9.92203059 11.1798471,10.215043 C11.6873595,10.5080554 12.3126405,10.5080554 12.8201529,10.215043 C13.3276653,9.92203059 13.6403058,9.38052133 13.6403057,8.79449652 C13.6403058,8.20847171 13.3276653,7.66696245 12.8201529,7.37395004 C12.3126405,7.08093763 11.6873595,7.08093763 11.1798471,7.37395004 C10.6723347,7.66696245 10.3596942,8.20847171 10.3596943,8.79449652 Z" id="Path"></path>
                <path d="M15.5596677,8.79449652 C15.5596677,9.70041236 16.2940576,10.4348023 17.1999734,10.4348023 C18.1058893,10.4348023 18.8402792,9.70041236 18.8402792,8.79449652 C18.8402792,7.88858067 18.1058893,7.15419078 17.1999734,7.15419078 C16.2940576,7.15419078 15.5596677,7.88858067 15.5596677,8.79449652 Z" id="Path"></path>
            </g>
        </g>
    </g>
</svg>