<?xml version="1.0" encoding="UTF-8"?>
<svg width="120px" height="120px" viewBox="0 0 120 120" version="1.1" xmlns="http://www.w3.org/2000/svg" xmlns:xlink="http://www.w3.org/1999/xlink">
    <!-- Generator: Sketch 52.6 (67491) - http://www.bohemiancoding.com/sketch -->
    <title>音乐</title>
    <desc>Created with Sketch.</desc>
    <defs>
        <radialGradient cx="50%" cy="50%" fx="50%" fy="50%" r="50%" gradientTransform="translate(0.500000,0.500000),scale(1.000000,0.994186),translate(-0.500000,-0.500000)" id="radialGradient-1">
            <stop stop-color="#AC2D73" offset="0%"></stop>
            <stop stop-color="#120A82" offset="92%"></stop>
            <stop stop-color="#07006B" offset="100%"></stop>
        </radialGradient>
        <linearGradient x1="90.5072268%" y1="20.6957496%" x2="9.4941375%" y2="79.3043243%" id="linearGradient-2">
            <stop stop-color="#3B2EE8" stop-opacity="0.2" offset="0%"></stop>
            <stop stop-color="#FC429F" offset="25%"></stop>
            <stop stop-color="#B639E5" offset="87%"></stop>
            <stop stop-color="#FCFCFC" offset="100%"></stop>
        </linearGradient>
        <linearGradient x1="126.40209%" y1="13.5040932%" x2="-24.1592819%" y2="87.2715353%" id="linearGradient-3">
            <stop stop-color="#FC429F" offset="0%"></stop>
            <stop stop-color="#3B2EE8" offset="100%"></stop>
        </linearGradient>
        <linearGradient x1="67.8867993%" y1="30.9688504%" x2="75.4688625%" y2="21.1618118%" id="linearGradient-4">
            <stop stop-color="#FC57A9" offset="0%"></stop>
            <stop stop-color="#FCFCFC" offset="100%"></stop>
        </linearGradient>
        <linearGradient x1="61.4131653%" y1="33.8941487%" x2="39.4202448%" y2="71.4869303%" id="linearGradient-5">
            <stop stop-color="#B639E5" offset="0%"></stop>
            <stop stop-color="#3B2EE8" offset="100%"></stop>
        </linearGradient>
        <linearGradient x1="92.2146132%" y1="-4.63859816%" x2="10.4535745%" y2="110.070945%" id="linearGradient-6">
            <stop stop-color="#FC429F" offset="0%"></stop>
            <stop stop-color="#B639E5" offset="100%"></stop>
        </linearGradient>
    </defs>
    <g id="Page-1" stroke="none" stroke-width="1" fill="none" fill-rule="evenodd">
        <g id="iPhone-8" transform="translate(-177.000000, -198.000000)">
            <g id="音乐" transform="translate(177.000000, 198.000000)">
                <g id="循环模式">
                    <g id="图-资源-12">
                        <ellipse id="Oval" fill="url(#radialGradient-1)" cx="60" cy="60.3278689" rx="56.0655738" ry="56.3934426"></ellipse>
                        <path d="M59.9548308,5.61469731 C86.7262364,5.59034291 109.53495,25.1646104 113.727249,51.7617846 C117.919548,78.3589588 102.24883,104.07023 76.7829298,112.377093 C51.3170297,120.683956 23.6283668,109.116322 11.5058441,85.1059517 C-0.616678668,61.0955812 6.4316347,31.7820844 28.1225135,15.9982575 C37.381525,9.2515634 48.5217809,5.61766153 59.9548308,5.61469731 Z M59.9548308,3.93450958 C33.9678996,3.96156583 11.4045662,21.9459534 5.43790156,47.387911 C-0.528763057,72.8298686 11.6648878,99.0619808 34.8998782,110.769246 C42.7110885,114.676325 51.3147233,116.713418 60.0383473,116.721311 C81.0928073,116.708669 100.365002,104.83052 109.936925,85.9670171 C119.508848,67.1035138 117.766372,44.4356389 105.425394,27.2765176 C94.8863331,12.5904686 77.9653263,3.9033857 59.9590067,3.93450958 L59.9548308,3.93450958 Z" id="Shape" fill="url(#linearGradient-2)" fill-rule="nonzero"></path>
                        <path d="M3.10837279,78.6885246 C-5.35495222,53.4533715 3.8779541,25.6687872 25.7703616,10.4918033 L28.852459,14.9558468 C8.92145404,28.7385915 0.519285038,54.0210331 8.24380779,76.9680513 L3.10837279,78.6885246 Z" id="Path" fill="url(#linearGradient-3)"></path>
                        <path d="M114.245163,65.6499501 C116.372688,46.0329572 107.677121,26.8058523 91.5234854,15.4091655 C75.3698494,4.01247878 54.2926478,2.23434907 36.4483634,10.7628794 L34.0983607,5.8762456 C53.7206607,-3.5030912 76.898549,-1.5488063 94.6627212,10.9828374 C112.426893,23.5144812 121.990192,44.6572978 119.651842,66.2295082 L114.245163,65.6499501 Z" id="Path" fill="url(#linearGradient-4)"></path>
                        <path d="M54.6247073,120 C35.5244375,118.320115 18.3772721,107.417802 8.52459016,90.6891545 L13.1637002,87.8688525 C22.1211082,103.081395 37.7137233,112.995026 55.0819672,114.520073 L54.6247073,120 Z" id="Path" fill="url(#linearGradient-5)"></path>
                        <path d="M64.6784245,119.344262 L64.2622951,113.931055 C86.6626643,112.2425 105.714136,96.9321406 112.196238,75.4098361 L117.377049,76.9630103 C110.258865,100.635232 89.3126319,117.480598 64.6784245,119.344262 Z" id="Path" fill="url(#linearGradient-6)"></path>
                    </g>
                </g>
                <path d="M81.9995133,45.5272371 C81.9995133,41.9976357 80.5777262,39.1739546 78.208081,37.2915005 C75.3645068,35.1737397 71.810039,34.4678194 68.2555712,35.4090464 L54.7485937,38.9386478 C47.8766227,40.8211019 42.4264388,47.644998 42.4264388,54.4688941 L42.4264388,71.4109808 C41.4785807,71.1756741 40.7676872,70.9403673 39.5828646,70.9403673 C35.5544678,70.9403673 32,74.234662 32,78.4701837 C32,82.7057053 35.3175033,86 39.5828646,86 C43.8482259,86 47.1657291,82.7057053 47.1657291,78.4701837 L47.1657291,61.7634036 L77.0232584,54.4688941 L77.0232584,68.3519929 C76.0754003,68.1166862 75.3645068,67.8813794 74.1796842,67.8813794 C70.1512874,67.8813794 66.5968196,71.1756741 66.5968196,75.4111958 C66.5968196,79.6467175 69.9143229,82.9410121 74.1796842,82.9410121 C78.4450455,82.9410121 81.7625488,79.6467175 81.7625488,75.4111958 C81.7625488,75.175889 81.7625488,75.175889 81.7625488,74.9405822 C81.7625488,74.9405822 81.7625488,74.7052755 81.7625488,74.7052755 C81.9198762,55.3331567 81.9988643,45.6071439 81.9995133,45.5272371 C82.0001622,45.4473304 82.0001622,45.4473304 81.9995133,45.5272371 Z M40,82 C38.5,82 37,80.75 37,79 C37,77.25 38.25,76 40,76 C41.75,76 43,77.25 43,79 C43,80.75 41.5,82 40,82 Z M47,57 L47,54.6712329 C47,50.0136986 51.047619,45.1232877 55.8095238,43.7260274 L69.3809524,40.2328767 C71.5238095,39.7671233 73.4285714,40 74.8571429,40.9315068 C76.2857143,41.8630137 77,43.4931507 77,45.5890411 L77,49.7808219 L47,57 Z M74,79 C72.5,79 71,77.75 71,76 C71,74.25 72.25,73 74,73 C75.75,73 77,74.25 77,76 C77,77.75 75.5,79 74,79 Z" id="Shape" fill="#FFFFFF" fill-rule="nonzero"></path>
            </g>
        </g>
    </g>
</svg>